<?xml version="1.0" encoding="utf-8"?>
<!-- Designed by Vexels.com - 2019 All Rights Reserved - https://vexels.com/terms-and-conditions/  -->
<svg version="1.1" id="Capa_1" xmlns="http://www.w3.org/2000/svg" xmlns:xlink="http://www.w3.org/1999/xlink" x="0px" y="0px"
	 viewBox="0 0 1200 1200" enable-background="new 0 0 1200 1200" xml:space="preserve">
<g>
	<g>
		<path fill="#231F20" d="M946.773,509.278c-28.378-80.16-71.539-153.896-103.483-232.55c-8.593-21.158-14.413-43.277-23.164-64.387
			c-5.874-14.169-13.368-37.626-26.645-46.703c-23.962-16.382-49.494,32.004-60.034,57.051c-0.562-1.366-7.771-13.775-14.066-16.854
			c-5.132-2.51-9.908-3.86-14.011-8.036c-5.377-5.473-7.452-13.668-10.955-20.477c-11.629-22.606-29.547-41.257-48.104-58.354
			c1.214-2.049,2.198-4.293,2.814-6.731c3.485-13.788-8.729-20.847-21.132-21.975c5.586-11.642,7.904-26.287-2.644-33.623
			c-11.762-8.181-25.154,1.139-32.459,12.428c-5.943-9.235-15.526-17.937-23.878-18.905c-15.888-1.842-24.945,12.453-22.125,24.698
			c-1.498,0.209-3.025,0.738-4.614,1.774c-7.209,4.701-8.352,16.843-6.177,24.352c2.329,8.04,7.403,10.843,13.444,11.05
			c-2.098,2.966-3.159,6.247-2.494,9.779c-14.533,6.138-26.985,27.326-33.772,40.031c-4.506,8.434-8.135,17.352-10.54,26.613
			c-2.499,9.623-2.051,20.477-8.423,28.236c-0.6,0.29-14.843,21.832-18.19,31.655c-5.985-15.501-15.528-29.323-24.811-43.551
			c-7.844-12.021-17.889-32.397-35.726-25.619c-16.687,6.341-24.769,30.178-29.037,45.747c-5.869,21.411-5.018,43.305-9.049,64.861
			c-2.382,12.739-9.905,25.622-14.822,37.564c-5.22,12.677-10.368,25.385-15.363,38.153c-9.971,25.485-19.352,51.214-27.479,77.351
			c-8.371,26.922-15.345,54.339-20.239,82.1c-15.244,33.725-32.689,66.433-47.09,100.569
			c-18.862,44.712-30.915,90.555-33.824,139.108c-2.036,33.995-6.806,94.144,25.057,117.607c12.229,9.005,26.98,6.217,36.009-5.685
			c4.707-6.205,6.667-12.959,7.555-19.951c4.708,22.044,13.53,42.683,32.604,57.076c7.988,6.027,21.602,14.511,31.808,8.191
			c7.102-4.398,7.518-14.329,6.688-23.613c13.938,13.646,36.219,29.313,43.783,12.761c3.686,4.241,7.384,8.421,11.037,12.522
			c14.71,16.512,32.29,30.929,51.879,41.281c8.599,4.544,17.504,8.291,26.608,11.413c1.676,22.698,5.007,45.168,8.318,67.682
			c1.263,8.589,3.586,16.307-4.021,23.002c-3.818,3.36-29.912,17.098-37.684,21.997c-11.901,7.501-32.365,19.724-35.273,34.884
			c-2.575,13.424,9.894,18.598,20.997,19.129c21.955,1.05,44.795-5.45,65.511-11.898c16.752-5.215,38.046-9.645,51.524-21.679
			c13.407-11.971,9.063-36.499,9.693-52.674c0.88-22.589,1.29-45.219,1.514-67.829c8.348,0.072,50.356-2.742,63.015-4.742
			c1.099,13.679,11.037,66.584,9.815,77.263c-1.632,14.273-49.809,37.324-58.179,43.926c-9.476,7.474-30.04,24.489-17.216,37.91
			c12.183,12.751,42.589,4.247,56.916,0.984c22.755-5.183,48.6-11.984,69.311-23.052c18.666-9.975,17.012-22.325,17.333-41.649
			c0.653-39.284,1.971-78.537,2.415-117.83c48.301-20.18,91.009-52.09,119.715-97.41c0.702-1.108,0.814-2.172,0.553-3.094
			c61.687-15.89,115.502-59.538,136.436-120.933C997.803,665.724,971.911,580.287,946.773,509.278z"/>
	</g>
	<g>
		<path fill="#FFFFFF" d="M442.071,399.46c7.832-2.955,17.724-4.331,25.958-1.759c-1.388-2.273-2.99-4.433-4.97-6.382
			c-13.383-13.169-33.028-14.305-49.856-8.021c-0.489,0.183-4.434,27.447,2.573,38.872
			C421.596,411.847,430.552,403.805,442.071,399.46z"/>
		<path fill="#FFFFFF" d="M740.133,415.605c1.891-2.117,3.579-4.401,4.924-6.886c4.985-9.21,3.07-17.753,3.943-27.329
			c-6.676-2.712-12.909-6.765-19.815-8.724c-11.482-3.259-21.599,0.963-30.598,7.814c-3.55,2.703-6.857,5.692-9.866,8.927
			C711.277,384.049,735.942,392.594,740.133,415.605z"/>
	</g>
	<g>
		<g>
			<g>
				<path fill="#AC192F" d="M560.669,316.319c14.576,1.82,47.283-1.653,49.9-2.18c-4.467-13.039-6.161-27.957-7.641-41.827
					c-12.036-0.25-24.643-1.46-36.984-4.047C564.979,278.143,562.479,310.573,560.669,316.319z"/>
			</g>
			<g>
				<path fill="#AC192F" d="M499.945,291.697c0.292-6.422,10.961-36.778,17.537-44.146c-7.542-5.742-14.074-12.733-19.285-21.065
					c-2.879,6.201-14.751,33.84-16.092,42.254c0.061,0.101,0.132,0.187,0.186,0.297
					C486.599,277.906,492.672,285.417,499.945,291.697z"/>
			</g>
			<g>
				<path fill="#AC192F" d="M523.684,251.887c-8.75,12.549-17.701,32.355-13.775,47.196c12.069,7.695,26.242,12.801,40.816,15.641
					c-0.703-6.706,3.801-39.44,6.192-48.638C545.075,262.879,533.719,258.294,523.684,251.887z"/>
			</g>
			<g>
				<path fill="#AC192F" d="M722.13,277.443c4.681-3.999,8.599-8.958,11.461-15.196c-3.58-13.083-3.684-26.09-9.737-38.49
					c-2.771-1.33-5.622-2.779-8.496-4.317c-6.099,6.03-12.637,11.899-19.576,17.404C703.212,241.831,719.75,270.147,722.13,277.443z
					"/>
			</g>
			<g>
				<path fill="#AC192F" d="M714.442,282.892c-6.889-14.331-14.308-29.53-24.45-41.62c-9.634,7.133-19.919,13.489-30.693,18.572
					c5.283,5.663,17.666,30.384,18.078,36.269C690.176,292.685,703.489,289.333,714.442,282.892z"/>
			</g>
			<g>
				<path fill="#AC192F" d="M613.332,272.17c2.965,12.96,5.938,26.931,6.062,40.063c16.557-3.829,49.671-13.813,49.934-13.89
					c-2.717-5.263-13.732-29.265-17.656-35.162C639.355,268.178,626.494,271.405,613.332,272.17z"/>
			</g>
			<g>
				<path fill="#AC192F" d="M575.329,95.624c5.048-0.333,6.247,6.406,2.481,8.977c-2.526,1.724-5.896,2.363-8.695,3.555
					c-2.996,1.276-5.927,2.845-8.272,5.142c-2.477,2.427-6.287,9.444-1.74,12.446c6.388,4.217,22.933-5.674,28.383-9.349
					c3.735-2.518,7.805,2.315,5.872,5.872c-5.921,10.895-1.436,29.89,13.519,23.749c10.003-4.108,8.604-14.803,7.154-24.234
					c-0.78-5.07,5.132-9.86,9.326-5.429c11.38,1.733,14.341-1.406,8.882-9.417c-4.805-3.299-9.858-3.956-15.159-1.968
					c-5.768,1.561-11.588-6.63-6.28-10.787c4.914-3.847,14.73-14.757,11.978-21.63c-7.562-18.886-23.206,5.121-24.505,12.036
					c-0.952,5.072-9.763,5.311-10.492,0c-1.236-9.018-11.28-15.293-17.418-21c-2.017-1.875-5.354-1.148-6.593,1.144
					c-1.842,3.407-4.688,11.535,0.099,13.965c5.057,2.567,2.884,11.711-3.003,11.073c-2.699-0.292-6.036-2.333-8.595-2.24
					c-7.972,0.289-7.392,13.179,0.231,14.196C559.928,102.717,567.806,96.12,575.329,95.624z"/>
			</g>
		</g>
	</g>
	<path fill="#FF6151" d="M614.821,259.919c36.367-2.398,62.28-26,89.955-46.493c-0.861-0.519-14.248-15.715-18.452-24.97
		c-10.781-23.732-29.215-42.518-46.833-61.338c-4.137,2.878-9.038,4.161-13.842,3.213c0.058,15.216-4.564,31.697-23.377,30.063
		c-17.689-1.537-23.398-16.773-20.516-31.153c-10.495,4.756-23.901,8.034-31.054,0.304c-5.597,8.551-15.221,15.47-21.15,23.776
		c-6.903,9.672-12.563,20.359-16.301,31.646c-3.191,9.635-3.022,25.944-9.836,35.105
		C526.829,253.148,576.715,262.432,614.821,259.919z"/>
	<g>
		<path fill="#973C32" d="M703.452,1037.591c-14.363,6.56-34.96,1.933-49.664-5.565c0.857,5.982,1.687,11.971,2.515,17.963
			c2.416,17.479,4.695,24.619-10.748,34.04c-16.01,9.768-56.76,35.647-59.265,39.542c-6.933,10.781,0.843,14.386,9.318,14.078
			c12.157-0.441,24.157-2.78,35.914-5.784c11.502-2.939,55.647-16.163,62.257-22.562c12.768-12.363,9.008-37.039,9.3-53.343
			C703.19,1049.838,703.321,1043.715,703.452,1037.591z"/>
		<path fill="#973C32" d="M510.359,1026.109c0.438,3.101,9.28,37.275,0.334,46.216c-7.484,7.48-85.322,44.708-72.373,58.845
			c4.239,4.628,29.398-0.849,33.858-1.639c8.965-1.588,62.711-16.854,78.233-26.055c10.462-6.201,8.387-18.256,8.676-29.042
			c0.279-10.421,1.278-39.088,1.449-43.002C546.151,1038.341,525.238,1033.7,510.359,1026.109z"/>
	</g>
	<g>
		<g>
			<path fill="#FFAB56" d="M835.6,300.13c-13.364-31.322-21.376-64.641-35.397-95.643c-2.648-5.856-6.623-19.14-12.058-23.021
				c-9.74-6.955-19.789,8.511-24.271,13.984c-10.402,12.704-18.933,26.576-25.939,41.403c-0.066,0.14-0.152,0.249-0.227,0.375
				c1.683,7.802,1.93,23.975,1.93,24.206c-0.085,24.386-26.75,35.035-46.351,40.828c-30.453,9-61.146,20.633-92.483,26.047
				c-45.031,7.781-108.346-8.753-126.109-56.069c-0.219-0.584-0.276-1.14-0.219-1.66c-0.02-0.055-0.057-0.084-0.075-0.14
				c-8.641-26.263-24.964-47.599-42.148-68.828c-4.603-5.687-9.663-9.186-16.254-4.277c-3.746,2.791-6.392,9.24-8.36,13.347
				c-5.171,10.793-7.941,22.76-9.918,34.508c-1.911,11.361-2.832,22.851-3.78,34.324c-1.013,12.265-3.122,21.067-7.852,32.454
				c-3.106,7.478-6.19,14.965-9.257,22.46c21.781-18.909,52.179-26.19,81.776-22.468c22.986,2.891,43.949,11.687,63.56,23.746
				c10.596,6.516,20.329,13.818,29.63,22.078c11.826,10.503,25.784,28.097,42.845,28.646c0.825,0.027,1.437,0.349,1.915,0.786
				c15.844-18.154,35.623-31.479,57.206-41.972c21.128-10.272,44.109-20.61,67.565-23.643c37.862-4.896,77.572,19.637,98.642,50.169
				c21.494,31.146,22.278,73.773,1.518,105.466c-22.258,33.981-59.882,46.136-99.02,45.329c-20.237-0.417-42.143-1.519-61.393-8.253
				c-19.537-6.834-36.14-20.111-52.679-32.228c-0.657-0.482-21.074,15.138-33.51,10.526c-6.203-2.3-11.473-7.184-15.628-13.2
				c-0.039,0.026-0.066,0.057-0.106,0.083c-20.799,13.148-40.254,30.806-63.322,39.944c-16.769,6.643-37.39,5.688-55.045,4.874
				c-38.651-1.783-74.195-14.94-90.425-53.398c-6.441-15.263-6.831-33.609-6.422-50.067
				c-25.748,75.862-42.157,154.572-34.402,235.256c4.248,44.19,15.157,87.819,31.772,128.973
				c16.758,41.51,39.876,77.105,67.541,111.988c26.984,34.024,58.476,59.863,101.263,71.232
				c39.998,10.627,83.63,9.823,124.291,3.317c73.766-11.802,146.158-46.356,191.284-107.384c-1.075,0.22-2.146,0.456-3.225,0.659
				c-61.493,11.593-153.82,3.33-173.722-68.79c-0.031-0.114-52.293-46.792-52.383-47.034c-7.31-2.245-14.498-5.016-21.395-8.358
				c-10.452,18.399-26.203,49.536-52.4,39.705c-11.166-4.191-15.237-14.433-13.638-25.726c1.214-8.572,3.695-17.172,6.32-25.711
				c-8.847,7.053-19.371,12.528-29.122,16.493c-15.487,6.297-41.188,13.177-57.335,5.32c-13.023-6.337-7.607-23.712-3.24-34.139
				c5.991-14.304,16.245-26.39,28.571-35.617c-18.23-4.94-37.236-15.176-51.049-26.581c-11.872-9.804-31.938-28.487-24.637-46.153
				c7.379-17.856,32.936-10.647,47.006-8.367c18.033,2.923,41.434,5.165,59.902,13.097c-6.421-11.299-10.408-23.95-11.984-36.913
				c-1.222-10.049-3.529-26.598,7.351-32.442c12.219-6.564,24.745,3.573,33.924,10.532c15.17,11.501,30.306,23.046,44.965,35.187
				c2.876-12.075,10.376-23.305,18.69-32.116c8.18-8.668,21.584-21.316,34.152-14.913c13.725,6.993,21.276,22.678,25.742,36.618
				c6.266,19.561,10.424,41.031,8.099,61.55c3.231,0.248,6.465,0.464,9.701,0.632c24.782,1.289,49.348-1.109,73.422-7.175
				c42.368-10.675,103.859-35.328,96.057-89.736c-0.842-5.872,7.167-8.421,9.084-2.505c14.651,45.207-26.139,80.023-63.641,95.134
				c-23.597,9.508-48.524,15.73-73.808,18.507c-29.146,3.201-57.824-0.434-86.81-3.388c-20.695-2.109-86.792-12.157-76.405,25.783
				c6.832,24.954,30.511,43.695,53.497,52.976c52.406,21.161,114.901,12.104,167.704-2.122c5.727-1.543,9.336,6.741,4.057,9.622
				c-42.363,23.116-98.236,24.015-144.787,15.276c-0.983-0.185-1.968-0.416-2.952-0.619c19.244,24.344,49.753,37.153,80.595,39.206
				c20.546,1.368,41.043-1.475,61.004-6.226c17.828-4.244,35.53-11.359,53.92-12.317c4.006-0.209,4.873,5.143,1.923,7.099
				c-19.394,12.86-45.239,18.365-67.907,22.301c-19.511,3.388-39.54,4.94-59.211,1.994c-7.191-1.077-14.3-2.722-21.22-4.885
				c27.619,70.824,139.585,64.396,197.106,40.96c61.723-25.149,103.994-80.677,109.907-147.216
				c6.121-68.879-17.687-140.362-43.379-203.308C897.685,425.698,863.075,364.525,835.6,300.13z"/>
			<path fill="#FFAB56" d="M508.723,1014.889c8.395,2.843,43.574,6.006,52.207,7.721c0.508-11.097,1.065-22.192,1.691-33.282
				c-20.257-0.766-40.453-3.478-59.867-8.933C505.063,991.842,507.001,1003.345,508.723,1014.889z"/>
			<path fill="#FFAB56" d="M652.106,1020.788c8.406,2.848,43.129,6.126,51.552,7.618c0.495-20.729,1.203-41.453,2.257-62.161
				c-19.522,7.415-39.838,12.981-60.426,16.814C648.058,995.579,650.197,1008.164,652.106,1020.788z"/>
			<path fill="#FFAB56" d="M292.052,598.547c0.343-13.666,1.335-27.279,2.872-40.824c-21.55,49.585-44.99,98.601-55.339,151.744
				c-7.606,39.061-11.677,84.409-4.782,123.941c2.497,14.32,21.775,63.024,37.76,30.751c4.243-8.567,3.064-18.406,4.242-27.568
				c0.91-7.072,3.082-13.127,5.93-19.59c1.909-4.331,7.889-1.659,8.156,2.209c1.572,22.832,6.64,47.282,19.574,66.549
				c6.175,9.199,14.594,18.133,24.378,23.567c15.383,8.543,13.489-15.769,12.499-24.599c-0.572-5.102,6.405-5.768,8.778-2.377
				c4.251,6.074,32.212,42.773,40.346,22.714c-8.416-9.917-16.59-20.139-23.755-30.537
				C317.678,794.66,289.627,695.27,292.052,598.547z"/>
		</g>
	</g>
	<path fill="#FFDABE" d="M366.78,476.826c22.174,33.914,59.398,37.333,96.561,36.073c15.406-0.522,27.932-2.887,41.407-10.816
		c16.789-9.879,32.319-21.766,49.021-31.805c0.107-0.064,0.212-0.095,0.318-0.151c-3.281-7.374-4.584-24.461-3.676-25.089
		c7.693-14.448,32.067-16.976,46.355-14.482c18.549,3.238,25.334,20.645,18.159,37.14c-1.074,2.469-3.234,7.745-2.823,8.044
		c17.948,13.02,36.76,25.484,58.585,30.979c21.878,5.508,47.67,5.699,70.069,3.767c46.748-4.033,85.533-39.486,83.316-88.422
		c-2.123-46.863-49.089-92.271-96.782-90.447c-24.334,0.931-49.568,12.053-71.357,22.204c-20.565,9.581-39.467,21.491-54.978,38.219
		c-1.499,1.616-3.419,1.14-4.535-0.123c-0.464,0.353-1.026,0.612-1.778,0.607c-20.449-0.15-37.718-20.48-52.18-32.911
		c-21.044-18.089-42.807-32.271-70.236-38.459c-43.095-9.723-92.01,5.756-108.916,49.571c-6.824,17.684-7.953,37.585-7.736,56.358
		C355.778,444.544,356.949,461.791,366.78,476.826z M667.083,420.147c-0.539-42.857,53.447-81.711,86.267-42.869
		c0.626,0.741,0.794,1.756,0.606,2.673c14.528,18.709-5.491,46.457-22.632,55.469c-21.461,11.283-47.769,7.483-64.593-9.872
		C664.893,423.651,665.538,421.367,667.083,420.147z M407.492,378.737c0.797-1.376,2.026-1.649,3.106-1.303
		c0.038-0.025,0.056-0.063,0.096-0.086c16.573-9.756,36.034-10.277,52.543-0.006c13.798,8.584,27.854,28.283,26.732,44.979
		c-0.068,1.009-0.495,1.869-1.096,2.549c-0.13,30.182-40.824,34.741-61.662,23.201C402.428,434.346,393.338,403.18,407.492,378.737z
		"/>
	<g>
		<path fill="#FF5534" d="M529.603,711.845c0.046,0.618-3.216,18.545-5.51,26.81c-2.747,9.898-9.376,23.228,0.464,31.556
			c14.26,12.068,35.55-21,44.029-32.812c-5.614-3.099-10.959-6.613-15.971-10.524c-1.446,4.702-10.35,27.783-16.895,29.635
			c-1.404,0.397-3.062-0.487-3.408-1.935c-1.422-5.948,10.273-28.312,12.434-34.413c-8.688-8.249-15.915-17.99-20.946-29.338
			c-1.623-3.66-2.982-7.54-3.899-11.48c-9.569,8.276-20.432,14.77-31.404,21.116c-0.396,6.902-0.574,13.679-2.761,20.369
			c-0.567,1.735-2.708,1.542-3.34,0c-2.136-5.216-2.468-10.37-2.083-15.626c-9.226,5.375-18.317,10.937-26.552,17.683
			c-2.174,1.781-5.129-1.019-3.135-3.135c9.195-9.756,33.713-25.404,33.987-25.578c12.186-7.739,34.042-26.175,34.045-26.259
			c-0.162-0.041-40.397-15.961-60.277-24.097c-1.787,0.878-16.236,6.305-21.712,8.119c-2.814,0.932-4.766-3.65-2.028-4.811
			c5.109-2.168,10.109-4.566,15.185-6.802c-13.838-5.613-27.734-11.095-41.81-16.151c-4.229-1.519-2.563-8.027,1.878-6.813
			c23.117,6.321,46.762,13.533,69.552,22.464c-0.27-0.35-4.303-4.869-4.84-7.21c-0.475-2.07,1.868-4.37,3.867-2.972
			c2.068,1.446,6.919,10.365,8.217,12.586c0.122,0.209,22.857,10.535,33.597,16.321c1.498-4.392,8.686-12.38,8.966-12.605
			c-11.949-24.25-17.871-51.167-31.108-74.764c-0.969-1.727,1.535-3.829,2.829-2.182c8.991,11.444,15.715,23.84,21.67,36.663
			c0.696-5.095,1.919-10.124,4.732-13.973c1.482-2.027,4.221-1.202,4.518,1.224c0.938,7.663-2.574,16.304-4.305,23.813
			c3.446,7.968,6.767,16.04,10.289,24.101c12.551-5.403,28.388-5.35,41.065-5.34c5.181,0.004,10.349,0.214,15.512,0.505
			c-0.288-2.185-0.901-6.889-0.988-6.957c-8.185-6.364-15.813-14.127-20.138-23.682c-1.73-3.822,2.784-7.958,6.062-4.677
			c0.792,0.793,9.773,12.409,13.829,16.933c-0.036-4.018,2.532-29.92,4.663-36.564c0.525-1.636,3.232-1.916,3.607,0
			c0.585,2.988,0.895,5.987,1.068,8.994c0.211-0.293,6.017-8.515,10.361-10.206c1.465-0.57,3.255,0.897,3.157,2.405
			c-0.31,4.727-3.484,8.743-6.281,12.413c-2.312,3.035-4.725,5.998-7.135,8.962c-0.031,1.666-0.062,3.333-0.075,5.002
			c-0.073,9.278,0.224,18.633-1.084,27.83c10.57,0.786,21.12,1.909,31.677,2.923c0.004-0.032,0-0.059,0.004-0.091
			c3.167-22.912-2.089-61.921-18.921-79.932c-6.832-7.31-10.364-7.442-17.732-2.376c-5.364,3.688-25.507,31.125-30.074,40.928
			c-0.172,1.047-7.201,4.353-7.681,3.989c-18.551-14.102-35.933-29.529-53.987-44.243c-5.68-7.032-12.444-6.465-20.292,1.701
			c0.039,1.683,1.761,19.802,3.218,25.845c2.875,11.929,8.26,22.561,13.844,33.403c0.878,1.705-2.325,11.139-5.299,9.979
			c-18.081-7.05-37.807-10.945-56.753-14.937c-9.354-1.971-38.812-8.295-43.721-6.91c-8.948,2.523-11.027,11.486-6.809,18.937
			c9.091,16.057,27.1,28.62,43.597,35.984c11.209,5.003,28.506,5.39,35.207,16.673c1.078,1.816-1.754,5.2-2.133,5.552
			c-10.159,9.429-20.794,18.659-27.972,30.695c-3.266,5.477-8.05,13.768-7.476,20.407c0.951,11.003,14.206,9.222,23.029,8.137
			c28.063-3.452,46.3-18.192,67.95-34.067c1.655-5.324,9.253-2.784,8.459,2.608C529.625,711.713,529.613,711.778,529.603,711.845z
			 M488.055,669.798c2.601,0.977,3.426,3.261,5.212,5.196c1.597,1.729,3.409,3.097,5.465,4.235c2.36,1.306,0.731,5.025-1.815,4.305
			c-2.677-0.757-5.27-1.887-7.576-3.451c-2.511-1.702-5.454-3.734-5.592-7.005C483.662,671.011,486.016,669.033,488.055,669.798z"/>
		<path fill="#FF5534" d="M579.587,441.973c-8.421,0.85-14.553,5.045-21.73,8.174c3.561,9.924,7.12,20.093,14.688,27.794
			c12.976,13.203,28.921-4.358,32.898-17.121C611.056,442.805,592.375,440.682,579.587,441.973z"/>
	</g>
	<g>
		<g>
			<path fill="#D68D4C" d="M891.472,789.344c-7.63-2.832-17.931-11.859-13.245-20.894c6.24-12.034-4.106-27.492-18.066-23.501
				c-21.113,6.036-46.226,7.104-66.677-2.204c-24.993-11.376-9.799-34.094,2.131-49.929c7.175-9.524-2.787-21.23-12.545-21.862
				c-27.87-1.804-55.627-7.172-82.312-15.601c-1.22,0.15-2.437,0.331-3.659,0.465c-29.146,3.201-57.824-0.434-86.81-3.388
				c-20.695-2.109-86.792-12.157-76.405,25.783c6.832,24.954,30.511,43.695,53.497,52.976
				c52.406,21.161,114.901,12.104,167.704-2.122c5.727-1.543,9.336,6.741,4.057,9.622c-42.363,23.116-98.236,24.015-144.787,15.276
				c-0.983-0.185-1.968-0.416-2.952-0.619c19.244,24.344,49.753,37.153,80.595,39.206c20.546,1.368,41.043-1.475,61.004-6.226
				c17.828-4.244,35.53-11.359,53.92-12.317c4.006-0.209,4.873,5.143,1.923,7.099c-19.394,12.86-45.239,18.365-67.907,22.301
				c-19.511,3.388-39.54,4.94-59.211,1.994c-7.191-1.077-14.3-2.722-21.22-4.885c27.619,70.824,139.585,64.396,197.106,40.96
				c28.548-11.632,52.923-29.773,71.476-52.486C917.179,791.221,903.073,793.651,891.472,789.344z"/>
			<path fill="#D68D4C" d="M408.85,897.498c26.984,34.024,58.476,59.863,101.263,71.232c39.998,10.627,83.63,9.823,124.291,3.317
				c73.766-11.802,146.158-46.356,191.284-107.384c-1.075,0.22-2.146,0.456-3.225,0.659c-61.493,11.593-153.82,3.33-173.722-68.79
				c-0.031-0.114-52.293-46.792-52.383-47.034c-7.31-2.245-14.498-5.016-21.395-8.358c-10.452,18.399-26.203,49.536-52.4,39.705
				c-11.166-4.191-15.237-14.433-13.638-25.726c1.214-8.572,3.695-17.172,6.32-25.711c-8.847,7.053-19.371,12.528-29.122,16.493
				c-15.487,6.297-41.188,13.177-57.335,5.32c-13.023-6.337-7.607-23.712-3.24-34.139c5.991-14.304,16.245-26.39,28.571-35.617
				c-18.23-4.94-37.236-15.176-51.049-26.581c-2.801-2.313-6.059-5.134-9.305-8.306c-31.214,42.872-39.475,101.917-34.534,154.394
				c0.257,2.723,0.556,5.441,0.881,8.157c-0.632-1.403-1.295-2.795-1.904-4.207c-4.839-11.221-6.399-27.254-16.46-35.018
				c-2.517-1.943-5.281-3.527-8.138-4.99c2.428,6.92,4.955,13.803,7.698,20.597C358.067,827.02,381.185,862.615,408.85,897.498z"/>
			<path fill="#D68D4C" d="M234.803,833.848c2.497,14.32,21.775,63.024,37.76,30.751c4.243-8.567,3.064-18.406,4.242-27.568
				c0.91-7.072,3.082-13.127,5.93-19.59c1.909-4.331,7.889-1.659,8.156,2.209c1.572,22.832,6.64,47.282,19.574,66.549
				c6.175,9.199,14.594,18.133,24.378,23.567c15.383,8.543,13.489-15.769,12.499-24.599c-0.572-5.102,6.405-5.768,8.778-2.377
				c4.251,6.074,32.212,42.773,40.346,22.714c-8.416-9.917-16.59-20.139-23.755-30.537c-25.278-36.684-44.845-77.492-58.4-120.263
				c-0.584-0.416-1.186-0.802-1.751-1.252c-8.895-7.09-15.14-18.075-25.819-22.641c-11.475-4.906-20.949,2.36-31.95,0.209
				c-6.581-1.287-12.575-6.426-16.78-12.614C231.458,755.446,228.403,797.149,234.803,833.848z"/>
		</g>
	</g>
	<g>
		<path fill="#FF6151" d="M428.745,461.235c-0.859-3.612-2.515-6.759-4.968-9.44c-1.931-2.981-4.489-5.334-7.663-7.072
			c-1.514-1.247-3.224-2.16-5.15-2.7c-1.172-0.601-2.382-1.103-3.629-1.505c-3.722-1.167-7.444-1.334-11.165-0.5
			c-3.726,0.169-7.196,1.277-10.41,3.323c-3.263,1.759-5.882,4.163-7.856,7.212c-2.475,2.704-4.145,5.878-5.012,9.522
			c-0.333,2.481-0.667,4.962-1,7.444c0.001,0.319,0.052,0.625,0.063,0.941c-0.182,2.638,0.116,5.276,0.943,7.914
			c0.713,2.204,1.663,4.369,2.811,6.423c0.935,2.635,2.335,4.999,4.232,7.072c1.939,2.994,4.511,5.355,7.716,7.083
			c2.19,0.924,4.379,1.848,6.569,2.772c3.655,1.146,7.311,1.31,10.966,0.491c2.482-0.008,4.795-0.633,6.94-1.877
			c3.409-1.109,6.359-3.004,8.85-5.686c4.437-4.833,8.035-11.331,8.052-18.086C429.996,470.122,429.94,465.678,428.745,461.235z"/>
		<path fill="#FF6151" d="M789.027,460.563c-0.924-3.886-2.705-7.27-5.344-10.154c-2.077-3.207-4.829-5.738-8.243-7.607
			c-1.629-1.341-3.467-2.323-5.54-2.904c-1.261-0.647-2.562-1.186-3.903-1.619c-4.003-1.255-8.007-1.434-12.01-0.538
			c-4.008,0.182-7.741,1.373-11.198,3.574c-3.51,1.893-6.327,4.478-8.451,7.757c-2.662,2.909-4.459,6.323-5.391,10.243
			c-0.359,2.669-0.717,5.338-1.076,8.007c0.001,0.343,0.055,0.672,0.067,1.012c-0.196,2.838,0.125,5.676,1.015,8.513
			c0.767,2.37,1.788,4.7,3.024,6.909c1.005,2.835,2.512,5.377,4.552,7.607c2.086,3.22,4.852,5.76,8.299,7.619
			c2.355,0.994,4.711,1.988,7.066,2.982c3.932,1.233,7.864,1.409,11.796,0.528c2.67-0.008,5.158-0.681,7.465-2.019
			c3.667-1.193,6.841-3.232,9.52-6.116c4.773-5.199,8.643-12.188,8.662-19.455C790.372,470.122,790.311,465.343,789.027,460.563z"/>
	</g>
</g>
</svg>
